<?xml version="1.0" encoding="UTF-8" standalone="no"?>
<!-- Created with Inkscape (http://www.inkscape.org/) -->

<svg
   version="1.1"
   id="svg3713"
   xml:space="preserve"
   width="168.592"
   height="195.082"
   viewBox="0 0 168.59199 195.082"
   sodipodi:docname="logo_slurm.svg"
   inkscape:version="1.1.1 (3bf5ae0d25, 2021-09-20)"
   inkscape:export-filename="C:\Users\Quentin\Documents\GitHub\rslurm\logo_slurm.png"
   inkscape:export-xdpi="199.87"
   inkscape:export-ydpi="199.87"
   xmlns:inkscape="http://www.inkscape.org/namespaces/inkscape"
   xmlns:sodipodi="http://sodipodi.sourceforge.net/DTD/sodipodi-0.dtd"
   xmlns="http://www.w3.org/2000/svg"
   xmlns:svg="http://www.w3.org/2000/svg"
   xmlns:rdf="http://www.w3.org/1999/02/22-rdf-syntax-ns#"
   xmlns:cc="http://creativecommons.org/ns#"
   xmlns:dc="http://purl.org/dc/elements/1.1/"><metadata
     id="metadata3719"><rdf:RDF><cc:Work
         rdf:about=""><dc:format>image/svg+xml</dc:format><dc:type
           rdf:resource="http://purl.org/dc/dcmitype/StillImage" /><dc:title /></cc:Work></rdf:RDF></metadata><defs
     id="defs3717"><clipPath
       clipPathUnits="userSpaceOnUse"
       id="clipPath3737"><path
         d="M 0,841.89 H 595.276 V 0 H 0 Z"
         id="path3735"
         inkscape:connector-curvature="0" /></clipPath><clipPath
       clipPathUnits="userSpaceOnUse"
       id="clipPath3833"><path
         d="M 0,841.89 H 595.276 V 0 H 0 Z"
         id="path3831"
         inkscape:connector-curvature="0" /></clipPath><clipPath
       clipPathUnits="userSpaceOnUse"
       id="clipPath4045"><path
         d="M 0,841.89 H 595.276 V 0 H 0 Z"
         id="path4043"
         inkscape:connector-curvature="0" /></clipPath></defs><sodipodi:namedview
     pagecolor="#ffffff"
     bordercolor="#666666"
     borderopacity="1"
     objecttolerance="10"
     gridtolerance="10"
     guidetolerance="10"
     inkscape:pageopacity="0"
     inkscape:pageshadow="2"
     inkscape:window-width="1920"
     inkscape:window-height="1001"
     id="namedview3715"
     showgrid="false"
     fit-margin-top="0"
     fit-margin-left="0"
     fit-margin-right="0"
     fit-margin-bottom="0"
     inkscape:pagecheckerboard="true"
     inkscape:zoom="2"
     inkscape:cx="-66.5"
     inkscape:cy="133.75"
     inkscape:window-x="2091"
     inkscape:window-y="66"
     inkscape:window-maximized="1"
     inkscape:current-layer="g3721" /><g
     id="g3721"
     inkscape:groupmode="layer"
     inkscape:label="Slurm"
     transform="matrix(1.3333333,0,0,-1.3333333,-338.51026,621.97872)"><g
   id="g3723"
   transform="translate(379.3252,357.4923)"><path
     d="m 0,0 -62.033,-36.164 -62.22,35.837 -0.188,72 62.032,36.163 L -0.188,72 Z"
     style="fill:#45c3f3;fill-opacity:1;fill-rule:nonzero;stroke:none"
     id="path3725"
     inkscape:connector-curvature="0" /></g><g
   id="g3727"
   transform="translate(379.3252,357.4923)"><path
     d="m 0,0 -62.033,-36.164 -62.22,35.837 -0.188,72 62.032,36.163 L -0.188,72 Z"
     style="fill:none;stroke:#ec008c;stroke-width:2;stroke-linecap:butt;stroke-linejoin:miter;stroke-miterlimit:10;stroke-dasharray:none;stroke-opacity:1"
     id="path3729"
     inkscape:connector-curvature="0" /></g><g
   id="g3731"><g
     id="g3733"
     clip-path="url(#clipPath3737)"><g
       id="g3739"
       transform="translate(265.6846,372.4445)"><path
         d="m 0,0 c 5.049,-0.637 7.246,2.136 9.09,0.754 2.638,-1.979 0.565,-9.483 0.229,-10.774 -1.096,-4.209 -3.266,-6.851 -1.952,-9.059 0.223,-0.375 0.793,-1.151 2.41,-1.713 8.27,-2.875 20.786,8.002 26.427,3.909 1.942,-1.408 2.457,-4.073 2.912,-6.43 1.191,-6.166 -2.157,-9.145 -0.458,-11.919 1.763,-2.88 8.08,-4.1 11.232,-1.605 5.085,4.025 -2.166,14.484 3.74,22.8 2.785,3.921 8.256,7.025 11.846,5.622 5.506,-2.152 2.72,-13.397 9.136,-16.647 3.482,-1.763 9.123,-0.893 11.492,2.207 4.734,6.192 -6.355,17.655 -0.916,25.901 1.638,2.484 4.127,3.689 5.5,4.354 7.531,3.647 13.674,-0.866 16.962,2.522 2.105,2.168 2.13,6.636 0.458,9.397 -3.041,5.028 -10.67,2.694 -13.581,7.897 -1.215,2.173 -1.266,5.05 -0.4,7.231 2.437,6.143 11.332,4.749 13.405,10.528 0.941,2.621 0.343,6.376 -1.716,7.81 -3.455,2.406 -8.448,-3.519 -17.648,-2.293 -4.222,0.563 -5.7,2.148 -6.189,2.751 -1.545,1.907 -1.549,4.312 -1.516,7.133 0.068,5.856 2.058,7.416 0.828,9.829 -1.215,2.384 -4.463,3.423 -6.885,3.309 -3.997,-0.189 -7.181,-3.588 -8.472,-6.748 -2.206,-5.402 1.418,-9.384 -1.375,-12.606 -1.999,-2.307 -5.417,-2.065 -5.594,-2.05 -3.936,0.337 -6.445,4.315 -8.847,8.239 -5.088,8.316 -3.972,12.534 -8.022,14.669 -2.802,1.477 -6.781,1.274 -8.71,-0.688 -2.066,-2.1 -1.379,-5.804 -0.458,-10.772 1.288,-6.954 3.269,-8.498 2.521,-12.607 -0.264,-1.453 -0.892,-4.905 -3.438,-6.418 -4.062,-2.416 -8.791,2.488 -20.4,5.501 C 6.812,51.279 0.019,53.042 -2.56,49.976 -4.639,47.504 -3.459,42.51 -1.454,39.261 2.691,32.545 9.988,33.902 11.84,28.488 13.18,24.573 11.505,19.348 8.631,17.715 7.766,17.224 7.6,17.516 3.458,16.575 0.512,15.906 -0.961,15.572 -2.239,14.929 -3.524,14.282 -5.465,12.984 -7.216,10.201 -7.581,9.364 -8.608,6.72 -7.464,4.229 -5.861,0.738 -1.186,0.149 0,0"
         style="fill:#d0e40f;fill-opacity:1;fill-rule:nonzero;stroke:none"
         id="path3741"
         inkscape:connector-curvature="0" /></g><g
       id="g3743"
       transform="translate(265.6846,372.4445)"><path
         d="m 0,0 c 5.049,-0.637 7.246,2.136 9.09,0.754 2.638,-1.979 0.565,-9.483 0.229,-10.774 -1.096,-4.209 -3.266,-6.851 -1.952,-9.059 0.223,-0.375 0.793,-1.151 2.41,-1.713 8.27,-2.875 20.786,8.002 26.427,3.909 1.942,-1.408 2.457,-4.073 2.912,-6.43 1.191,-6.166 -2.157,-9.145 -0.458,-11.919 1.763,-2.88 8.08,-4.1 11.232,-1.605 5.085,4.025 -2.166,14.484 3.74,22.8 2.785,3.921 8.256,7.025 11.846,5.622 5.506,-2.152 2.72,-13.397 9.136,-16.647 3.482,-1.763 9.123,-0.893 11.492,2.207 4.734,6.192 -6.355,17.655 -0.916,25.901 1.638,2.484 4.127,3.689 5.5,4.354 7.531,3.647 13.674,-0.866 16.962,2.522 2.105,2.168 2.13,6.636 0.458,9.397 -3.041,5.028 -10.67,2.694 -13.581,7.897 -1.215,2.173 -1.266,5.05 -0.4,7.231 2.437,6.143 11.332,4.749 13.405,10.528 0.941,2.621 0.343,6.376 -1.716,7.81 -3.455,2.406 -8.448,-3.519 -17.648,-2.293 -4.222,0.563 -5.7,2.148 -6.189,2.751 -1.545,1.907 -1.549,4.312 -1.516,7.133 0.068,5.856 2.058,7.416 0.828,9.829 -1.215,2.384 -4.463,3.423 -6.885,3.309 -3.997,-0.189 -7.181,-3.588 -8.472,-6.748 -2.206,-5.402 1.418,-9.384 -1.375,-12.606 -1.999,-2.307 -5.417,-2.065 -5.594,-2.05 -3.936,0.337 -6.445,4.315 -8.847,8.239 -5.088,8.316 -3.972,12.534 -8.022,14.669 -2.802,1.477 -6.781,1.274 -8.71,-0.688 -2.066,-2.1 -1.379,-5.804 -0.458,-10.772 1.288,-6.954 3.269,-8.498 2.521,-12.607 -0.264,-1.453 -0.892,-4.905 -3.438,-6.418 -4.062,-2.416 -8.791,2.488 -20.4,5.501 C 6.812,51.279 0.019,53.042 -2.56,49.976 -4.639,47.504 -3.459,42.51 -1.454,39.261 2.691,32.545 9.988,33.902 11.84,28.488 13.18,24.573 11.505,19.348 8.631,17.715 7.766,17.224 7.6,17.516 3.458,16.575 0.512,15.906 -0.961,15.572 -2.239,14.929 -3.524,14.282 -5.465,12.984 -7.216,10.201 -7.581,9.364 -8.608,6.72 -7.464,4.229 -5.861,0.738 -1.186,0.149 0,0 Z"
         style="fill:none;stroke:#231f20;stroke-width:1;stroke-linecap:butt;stroke-linejoin:miter;stroke-miterlimit:10;stroke-dasharray:none;stroke-opacity:1"
         id="path3745"
         inkscape:connector-curvature="0" /></g><g
       id="g3747"
       transform="translate(262.626,404.5997)"><path
         d="m 0,0 c -2.52,-0.146 -4.263,-4.962 -2.979,-6.418 1.25,-1.42 6.108,-0.471 6.646,2.064 C 4.08,-2.416 1.891,0.109 0,0"
         style="fill:#d0e40f;fill-opacity:1;fill-rule:nonzero;stroke:none"
         id="path3749"
         inkscape:connector-curvature="0" /></g><g
       id="g3751"
       transform="translate(262.626,404.5997)"><path
         d="m 0,0 c -2.52,-0.146 -4.263,-4.962 -2.979,-6.418 1.25,-1.42 6.108,-0.471 6.646,2.064 C 4.08,-2.416 1.891,0.109 0,0 Z"
         style="fill:none;stroke:#231f20;stroke-width:1;stroke-linecap:butt;stroke-linejoin:miter;stroke-miterlimit:10;stroke-dasharray:none;stroke-opacity:1"
         id="path3753"
         inkscape:connector-curvature="0" /></g><g
       id="g3755"
       transform="translate(280.2754,437.6066)"><path
         d="m 0,0 c -1.703,-1.345 -1.632,-4.029 -0.917,-5.73 1.05,-2.496 4.154,-4.46 6.418,-3.439 2.37,1.07 3.112,5.092 1.375,7.565 C 5.374,0.534 1.981,1.563 0,0"
         style="fill:#d0e40f;fill-opacity:1;fill-rule:nonzero;stroke:none"
         id="path3757"
         inkscape:connector-curvature="0" /></g><g
       id="g3759"
       transform="translate(280.2754,437.6066)"><path
         d="m 0,0 c -1.703,-1.345 -1.632,-4.029 -0.917,-5.73 1.05,-2.496 4.154,-4.46 6.418,-3.439 2.37,1.07 3.112,5.092 1.375,7.565 C 5.374,0.534 1.981,1.563 0,0 Z"
         style="fill:none;stroke:#231f20;stroke-width:1;stroke-linecap:butt;stroke-linejoin:miter;stroke-miterlimit:10;stroke-dasharray:none;stroke-opacity:1"
         id="path3761"
         inkscape:connector-curvature="0" /></g><g
       id="g3763"
       transform="translate(318.0947,454.339)"><path
         d="m 0,0 c -1.948,-0.132 -3.741,-1.87 -4.354,-3.897 -0.697,-2.298 0.163,-4.846 2.062,-6.188 C 0.5,-12.059 4.559,-10.736 5.73,-8.481 7.367,-5.333 3.701,0.25 0,0"
         style="fill:#d0e40f;fill-opacity:1;fill-rule:nonzero;stroke:none"
         id="path3765"
         inkscape:connector-curvature="0" /></g><g
       id="g3767"
       transform="translate(318.0947,454.339)"><path
         d="m 0,0 c -1.948,-0.132 -3.741,-1.87 -4.354,-3.897 -0.697,-2.298 0.163,-4.846 2.062,-6.188 C 0.5,-12.059 4.559,-10.736 5.73,-8.481 7.367,-5.333 3.701,0.25 0,0 Z"
         style="fill:none;stroke:#231f20;stroke-width:1;stroke-linecap:butt;stroke-linejoin:miter;stroke-miterlimit:10;stroke-dasharray:none;stroke-opacity:1"
         id="path3769"
         inkscape:connector-curvature="0" /></g><g
       id="g3771"
       transform="translate(359.124,434.1681)"><path
         d="M 0,0 C -0.333,1.852 -4.948,3.282 -6.418,1.604 -7.544,0.319 -6.899,-2.879 -5.043,-3.667 -2.806,-4.618 0.304,-1.691 0,0"
         style="fill:#d0e40f;fill-opacity:1;fill-rule:nonzero;stroke:none"
         id="path3773"
         inkscape:connector-curvature="0" /></g><g
       id="g3775"
       transform="translate(359.124,434.1681)"><path
         d="M 0,0 C -0.333,1.852 -4.948,3.282 -6.418,1.604 -7.544,0.319 -6.899,-2.879 -5.043,-3.667 -2.806,-4.618 0.304,-1.691 0,0 Z"
         style="fill:none;stroke:#231f20;stroke-width:1;stroke-linecap:butt;stroke-linejoin:miter;stroke-miterlimit:10;stroke-dasharray:none;stroke-opacity:1"
         id="path3777"
         inkscape:connector-curvature="0" /></g><g
       id="g3779"
       transform="translate(327.7217,347.5265)"><path
         d="M 0,0 C -2.172,0.418 -6.204,-3.354 -5.042,-6.647 -4.035,-9.502 0.354,-10.522 2.063,-9.169 4.378,-7.335 2.596,-0.499 0,0"
         style="fill:#d0e40f;fill-opacity:1;fill-rule:nonzero;stroke:none"
         id="path3781"
         inkscape:connector-curvature="0" /></g><g
       id="g3783"
       transform="translate(327.7217,347.5265)"><path
         d="M 0,0 C -2.172,0.418 -6.204,-3.354 -5.042,-6.647 -4.035,-9.502 0.354,-10.522 2.063,-9.169 4.378,-7.335 2.596,-0.499 0,0 Z"
         style="fill:none;stroke:#231f20;stroke-width:1;stroke-linecap:butt;stroke-linejoin:miter;stroke-miterlimit:10;stroke-dasharray:none;stroke-opacity:1"
         id="path3785"
         inkscape:connector-curvature="0" /></g><g
       id="g3787"
       transform="translate(366.2295,370.2179)"><path
         d="m 0,0 c -1.411,3.074 -5.333,5.408 -7.793,4.126 -2.476,-1.29 -2.629,-5.804 -1.146,-8.71 1.296,-2.542 4.444,-5.03 6.876,-4.126 C 0.562,-7.734 1.445,-3.147 0,0"
         style="fill:#d0e40f;fill-opacity:1;fill-rule:nonzero;stroke:none"
         id="path3789"
         inkscape:connector-curvature="0" /></g><g
       id="g3791"
       transform="translate(366.2295,370.2179)"><path
         d="m 0,0 c -1.411,3.074 -5.333,5.408 -7.793,4.126 -2.476,-1.29 -2.629,-5.804 -1.146,-8.71 1.296,-2.542 4.444,-5.03 6.876,-4.126 C 0.562,-7.734 1.445,-3.147 0,0 Z"
         style="fill:none;stroke:#231f20;stroke-width:1;stroke-linecap:butt;stroke-linejoin:miter;stroke-miterlimit:10;stroke-dasharray:none;stroke-opacity:1"
         id="path3793"
         inkscape:connector-curvature="0" /></g><g
       id="g3795"
       transform="translate(260.334,364.9464)"><path
         d="m 0,0 c -1.834,-1.363 -1.676,-4.751 0.229,-5.96 1.739,-1.102 4.526,-0.135 5.272,1.834 0.45,1.188 0.083,2.545 -0.688,3.439 C 3.613,0.702 1.38,1.025 0,0"
         style="fill:#d0e40f;fill-opacity:1;fill-rule:nonzero;stroke:none"
         id="path3797"
         inkscape:connector-curvature="0" /></g><g
       id="g3799"
       transform="translate(260.334,364.9464)"><path
         d="m 0,0 c -1.834,-1.363 -1.676,-4.751 0.229,-5.96 1.739,-1.102 4.526,-0.135 5.272,1.834 0.45,1.188 0.083,2.545 -0.688,3.439 C 3.613,0.702 1.38,1.025 0,0 Z"
         style="fill:none;stroke:#231f20;stroke-width:1;stroke-linecap:butt;stroke-linejoin:miter;stroke-miterlimit:10;stroke-dasharray:none;stroke-opacity:1"
         id="path3801"
         inkscape:connector-curvature="0" /></g><g
       id="g3803"
       transform="translate(372.6475,408.2677)"><path
         d="M 0,0 C -1.643,0.386 -3.812,-1.473 -3.714,-3.061 -3.586,-5.128 0.369,-6.579 1.604,-5.501 2.801,-4.458 2.08,-0.489 0,0"
         style="fill:#d0e40f;fill-opacity:1;fill-rule:nonzero;stroke:none"
         id="path3805"
         inkscape:connector-curvature="0" /></g><g
       id="g3807"
       transform="translate(372.6475,408.2677)"><path
         d="M 0,0 C -1.643,0.386 -3.812,-1.473 -3.714,-3.061 -3.586,-5.128 0.369,-6.579 1.604,-5.501 2.801,-4.458 2.08,-0.489 0,0 Z"
         style="fill:none;stroke:#231f20;stroke-width:1;stroke-linecap:butt;stroke-linejoin:miter;stroke-miterlimit:10;stroke-dasharray:none;stroke-opacity:1"
         id="path3809"
         inkscape:connector-curvature="0" /></g><g
       id="g3811"
       transform="translate(295.5054,436.7843)"><path
         d="M 0,0 C -0.726,1.114 -3.22,-1.42 -3.126,-3.298 -3.063,-4.57 -1.778,-6.194 -0.695,-5.276 0.521,-4.247 0.534,-0.82 0,0"
         style="fill:#f2ef1d;fill-opacity:1;fill-rule:nonzero;stroke:none"
         id="path3813"
         inkscape:connector-curvature="0" /></g><g
       id="g3815"
       transform="translate(295.5054,436.7843)"><path
         d="M 0,0 C -0.726,1.114 -3.22,-1.42 -3.126,-3.298 -3.063,-4.57 -1.778,-6.194 -0.695,-5.276 0.521,-4.247 0.534,-0.82 0,0 Z"
         style="fill:none;stroke:#231f20;stroke-width:1;stroke-linecap:butt;stroke-linejoin:miter;stroke-miterlimit:10;stroke-dasharray:none;stroke-opacity:1"
         id="path3817"
         inkscape:connector-curvature="0" /></g><g
       id="g3819"
       transform="translate(297.6333,340.3458)"><path
         d="M 0,0 C -0.133,-1.153 -3.372,-2.372 -4.584,-1.259 -5.454,-0.46 -5.212,1.477 -4.126,2.097 -2.633,2.948 0.13,1.129 0,0"
         style="fill:#f2ef1d;fill-opacity:1;fill-rule:nonzero;stroke:none"
         id="path3821"
         inkscape:connector-curvature="0" /></g><g
       id="g3823"
       transform="translate(297.6333,340.3458)"><path
         d="M 0,0 C -0.133,-1.153 -3.372,-2.372 -4.584,-1.259 -5.454,-0.46 -5.212,1.477 -4.126,2.097 -2.633,2.948 0.13,1.129 0,0 Z"
         style="fill:none;stroke:#231f20;stroke-width:1;stroke-linecap:butt;stroke-linejoin:miter;stroke-miterlimit:10;stroke-dasharray:none;stroke-opacity:1"
         id="path3825"
         inkscape:connector-curvature="0" /></g></g></g><g
   id="g3827"><g
     id="g3829"
     clip-path="url(#clipPath3833)"><g
       id="g3835"
       transform="translate(304.874,390.3966)"><path
         d="m 0,0 c 0,-2.596 -5.685,-4.699 -12.698,-4.699 -7.013,0 -12.698,2.103 -12.698,4.699 0,2.595 5.685,4.698 12.698,4.698 C -5.685,4.698 0,2.595 0,0"
         style="fill:#d3d2d2;fill-opacity:1;fill-rule:nonzero;stroke:none"
         id="path3837"
         inkscape:connector-curvature="0" /></g><g
       id="g3839"
       transform="translate(304.874,390.3966)"><path
         d="m 0,0 c 0,-2.596 -5.685,-4.699 -12.698,-4.699 -7.013,0 -12.698,2.103 -12.698,4.699 0,2.595 5.685,4.698 12.698,4.698 C -5.685,4.698 0,2.595 0,0 Z"
         style="fill:none;stroke:#231f20;stroke-width:0.5;stroke-linecap:butt;stroke-linejoin:miter;stroke-miterlimit:10;stroke-dasharray:none;stroke-opacity:1"
         id="path3841"
         inkscape:connector-curvature="0" /></g><g
       id="g3843"
       transform="translate(279.4355,390.3966)"><path
         d="M 0,0 0.042,24.088 H 11.77 25.438 C 25.425,16.059 25.41,8.029 25.396,0 Z"
         style="fill:#d3d2d2;fill-opacity:1;fill-rule:nonzero;stroke:none"
         id="path3845"
         inkscape:connector-curvature="0" /></g><g
       id="g3847"
       transform="translate(279.4355,390.3966)"><path
         d="M 0,0 0.042,24.088 H 11.77 25.438 C 25.425,16.059 25.41,8.029 25.396,0 Z"
         style="fill:none;stroke:#231f20;stroke-width:0.5;stroke-linecap:butt;stroke-linejoin:miter;stroke-miterlimit:10;stroke-dasharray:none;stroke-opacity:1"
         id="path3849"
         inkscape:connector-curvature="0" /></g><g
       id="g3851"
       transform="translate(304.874,414.4845)"><path
         d="m 0,0 c 0,-2.595 -5.685,-4.698 -12.698,-4.698 -7.013,0 -12.698,2.103 -12.698,4.698 0,2.596 5.685,4.699 12.698,4.699 C -5.685,4.699 0,2.596 0,0"
         style="fill:#7b7979;fill-opacity:1;fill-rule:nonzero;stroke:none"
         id="path3853"
         inkscape:connector-curvature="0" /></g><g
       id="g3855"
       transform="translate(304.874,414.4845)"><path
         d="m 0,0 c 0,-2.595 -5.685,-4.698 -12.698,-4.698 -7.013,0 -12.698,2.103 -12.698,4.698 0,2.596 5.685,4.699 12.698,4.699 C -5.685,4.699 0,2.596 0,0 Z"
         style="fill:none;stroke:#231f20;stroke-width:0.5;stroke-linecap:butt;stroke-linejoin:miter;stroke-miterlimit:10;stroke-dasharray:none;stroke-opacity:1"
         id="path3857"
         inkscape:connector-curvature="0" /></g><g
       id="g3859"
       transform="translate(304.5889,390.3966)"><path
         d="M 0,0 H -24.877"
         style="fill:#bdbcbc;fill-opacity:1;fill-rule:nonzero;stroke:#d3d2d2;stroke-width:0.75;stroke-linecap:butt;stroke-linejoin:miter;stroke-miterlimit:10;stroke-dasharray:none;stroke-opacity:1"
         id="path3861"
         inkscape:connector-curvature="0" /></g><g
       id="g3863"
       transform="translate(331.4492,390.3966)"><path
         d="m 0,0 c 0,-2.596 -5.685,-4.699 -12.697,-4.699 -7.014,0 -12.699,2.103 -12.699,4.699 0,2.595 5.685,4.698 12.699,4.698 C -5.685,4.698 0,2.595 0,0"
         style="fill:#d3d2d2;fill-opacity:1;fill-rule:nonzero;stroke:none"
         id="path3865"
         inkscape:connector-curvature="0" /></g><g
       id="g3867"
       transform="translate(331.4492,390.3966)"><path
         d="m 0,0 c 0,-2.596 -5.685,-4.699 -12.697,-4.699 -7.014,0 -12.699,2.103 -12.699,4.699 0,2.595 5.685,4.698 12.699,4.698 C -5.685,4.698 0,2.595 0,0 Z"
         style="fill:none;stroke:#231f20;stroke-width:0.5;stroke-linecap:butt;stroke-linejoin:miter;stroke-miterlimit:10;stroke-dasharray:none;stroke-opacity:1"
         id="path3869"
         inkscape:connector-curvature="0" /></g><g
       id="g3871"
       transform="translate(306.0107,390.3966)"><path
         d="M 0,0 0.043,24.088 H 11.77 25.438 C 25.425,16.059 25.41,8.029 25.396,0 Z"
         style="fill:#d3d2d2;fill-opacity:1;fill-rule:nonzero;stroke:none"
         id="path3873"
         inkscape:connector-curvature="0" /></g><g
       id="g3875"
       transform="translate(306.0107,390.3966)"><path
         d="M 0,0 0.043,24.088 H 11.77 25.438 C 25.425,16.059 25.41,8.029 25.396,0 Z"
         style="fill:none;stroke:#231f20;stroke-width:0.5;stroke-linecap:butt;stroke-linejoin:miter;stroke-miterlimit:10;stroke-dasharray:none;stroke-opacity:1"
         id="path3877"
         inkscape:connector-curvature="0" /></g><g
       id="g3879"
       transform="translate(331.4492,414.4845)"><path
         d="m 0,0 c 0,-2.595 -5.685,-4.698 -12.697,-4.698 -7.014,0 -12.699,2.103 -12.699,4.698 0,2.596 5.685,4.699 12.699,4.699 C -5.685,4.699 0,2.596 0,0"
         style="fill:#7b7979;fill-opacity:1;fill-rule:nonzero;stroke:none"
         id="path3881"
         inkscape:connector-curvature="0" /></g><g
       id="g3883"
       transform="translate(331.4492,414.4845)"><path
         d="m 0,0 c 0,-2.595 -5.685,-4.698 -12.697,-4.698 -7.014,0 -12.699,2.103 -12.699,4.698 0,2.596 5.685,4.699 12.699,4.699 C -5.685,4.699 0,2.596 0,0 Z"
         style="fill:none;stroke:#231f20;stroke-width:0.5;stroke-linecap:butt;stroke-linejoin:miter;stroke-miterlimit:10;stroke-dasharray:none;stroke-opacity:1"
         id="path3885"
         inkscape:connector-curvature="0" /></g><g
       id="g3887"
       transform="translate(331.1641,390.3966)"><path
         d="M 0,0 H -24.878"
         style="fill:#d3d2d2;fill-opacity:1;fill-rule:nonzero;stroke:#d3d2d2;stroke-width:0.75;stroke-linecap:butt;stroke-linejoin:miter;stroke-miterlimit:10;stroke-dasharray:none;stroke-opacity:1"
         id="path3889"
         inkscape:connector-curvature="0" /></g><g
       id="g3891"
       transform="translate(357.918,390.3966)"><path
         d="m 0,0 c 0,-2.596 -5.686,-4.699 -12.698,-4.699 -7.013,0 -12.698,2.103 -12.698,4.699 0,2.595 5.685,4.698 12.698,4.698 C -5.686,4.698 0,2.595 0,0"
         style="fill:#d3d2d2;fill-opacity:1;fill-rule:nonzero;stroke:none"
         id="path3893"
         inkscape:connector-curvature="0" /></g><g
       id="g3895"
       transform="translate(357.918,390.3966)"><path
         d="m 0,0 c 0,-2.596 -5.686,-4.699 -12.698,-4.699 -7.013,0 -12.698,2.103 -12.698,4.699 0,2.595 5.685,4.698 12.698,4.698 C -5.686,4.698 0,2.595 0,0 Z"
         style="fill:none;stroke:#231f20;stroke-width:0.5;stroke-linecap:butt;stroke-linejoin:miter;stroke-miterlimit:10;stroke-dasharray:none;stroke-opacity:1"
         id="path3897"
         inkscape:connector-curvature="0" /></g><g
       id="g3899"
       transform="translate(332.4795,390.3966)"><path
         d="M 0,0 0.042,24.088 H 11.77 25.438 C 25.424,16.059 25.41,8.029 25.396,0 Z"
         style="fill:#d3d2d2;fill-opacity:1;fill-rule:nonzero;stroke:none"
         id="path3901"
         inkscape:connector-curvature="0" /></g><g
       id="g3903"
       transform="translate(332.4795,390.3966)"><path
         d="M 0,0 0.042,24.088 H 11.77 25.438 C 25.424,16.059 25.41,8.029 25.396,0 Z"
         style="fill:none;stroke:#231f20;stroke-width:0.5;stroke-linecap:butt;stroke-linejoin:miter;stroke-miterlimit:10;stroke-dasharray:none;stroke-opacity:1"
         id="path3905"
         inkscape:connector-curvature="0" /></g><g
       id="g3907"
       transform="translate(357.918,414.4845)"><path
         d="m 0,0 c 0,-2.595 -5.686,-4.698 -12.698,-4.698 -7.013,0 -12.698,2.103 -12.698,4.698 0,2.595 5.685,4.699 12.698,4.699 C -5.686,4.699 0,2.595 0,0"
         style="fill:#7b7979;fill-opacity:1;fill-rule:nonzero;stroke:none"
         id="path3909"
         inkscape:connector-curvature="0" /></g><g
       id="g3911"
       transform="translate(357.918,414.4845)"><path
         d="m 0,0 c 0,-2.595 -5.686,-4.698 -12.698,-4.698 -7.013,0 -12.698,2.103 -12.698,4.698 0,2.595 5.685,4.699 12.698,4.699 C -5.686,4.699 0,2.595 0,0 Z"
         style="fill:none;stroke:#231f20;stroke-width:0.5;stroke-linecap:butt;stroke-linejoin:miter;stroke-miterlimit:10;stroke-dasharray:none;stroke-opacity:1"
         id="path3913"
         inkscape:connector-curvature="0" /></g><g
       id="g3915"
       transform="translate(357.6318,390.3966)"><path
         d="M 0,0 H -24.877"
         style="fill:#d3d2d2;fill-opacity:1;fill-rule:nonzero;stroke:#d3d2d2;stroke-width:0.75;stroke-linecap:butt;stroke-linejoin:miter;stroke-miterlimit:10;stroke-dasharray:none;stroke-opacity:1"
         id="path3917"
         inkscape:connector-curvature="0" /></g><g
       id="g3919"
       transform="translate(301.7207,375.6407)"><path
         d="m 0,0 c 0,-2.596 -5.686,-4.699 -12.699,-4.699 -7.012,0 -12.697,2.103 -12.697,4.699 0,2.595 5.685,4.698 12.697,4.698 C -5.686,4.698 0,2.595 0,0"
         style="fill:#d3d2d2;fill-opacity:1;fill-rule:nonzero;stroke:none"
         id="path3921"
         inkscape:connector-curvature="0" /></g><g
       id="g3923"
       transform="translate(301.7207,375.6407)"><path
         d="m 0,0 c 0,-2.596 -5.686,-4.699 -12.699,-4.699 -7.012,0 -12.697,2.103 -12.697,4.699 0,2.595 5.685,4.698 12.697,4.698 C -5.686,4.698 0,2.595 0,0 Z"
         style="fill:none;stroke:#231f20;stroke-width:0.5;stroke-linecap:butt;stroke-linejoin:miter;stroke-miterlimit:10;stroke-dasharray:none;stroke-opacity:1"
         id="path3925"
         inkscape:connector-curvature="0" /></g><g
       id="g3927"
       transform="translate(276.2817,375.6407)"><path
         d="m 0,0 0.042,24.088 h 11.727 13.67 C 25.424,16.059 25.411,8.029 25.396,0 Z"
         style="fill:#d3d2d2;fill-opacity:1;fill-rule:nonzero;stroke:none"
         id="path3929"
         inkscape:connector-curvature="0" /></g><g
       id="g3931"
       transform="translate(276.2817,375.6407)"><path
         d="m 0,0 0.042,24.088 h 11.727 13.67 C 25.424,16.059 25.411,8.029 25.396,0 Z"
         style="fill:none;stroke:#231f20;stroke-width:0.5;stroke-linecap:butt;stroke-linejoin:miter;stroke-miterlimit:10;stroke-dasharray:none;stroke-opacity:1"
         id="path3933"
         inkscape:connector-curvature="0" /></g><g
       id="g3935"
       transform="translate(301.7207,399.7286)"><path
         d="m 0,0 c 0,-2.595 -5.686,-4.698 -12.699,-4.698 -7.012,0 -12.697,2.103 -12.697,4.698 0,2.595 5.685,4.699 12.697,4.699 C -5.686,4.699 0,2.595 0,0"
         style="fill:#7b7979;fill-opacity:1;fill-rule:nonzero;stroke:none"
         id="path3937"
         inkscape:connector-curvature="0" /></g><g
       id="g3939"
       transform="translate(301.7207,399.7286)"><path
         d="m 0,0 c 0,-2.595 -5.686,-4.698 -12.699,-4.698 -7.012,0 -12.697,2.103 -12.697,4.698 0,2.595 5.685,4.699 12.697,4.699 C -5.686,4.699 0,2.595 0,0 Z"
         style="fill:none;stroke:#231f20;stroke-width:0.5;stroke-linecap:butt;stroke-linejoin:miter;stroke-miterlimit:10;stroke-dasharray:none;stroke-opacity:1"
         id="path3941"
         inkscape:connector-curvature="0" /></g><g
       id="g3943"
       transform="translate(301.4346,375.6407)"><path
         d="M 0,0 H -24.877"
         style="fill:#d3d2d2;fill-opacity:1;fill-rule:nonzero;stroke:#d3d2d2;stroke-width:0.75;stroke-linecap:butt;stroke-linejoin:miter;stroke-miterlimit:10;stroke-dasharray:none;stroke-opacity:1"
         id="path3945"
         inkscape:connector-curvature="0" /></g><g
       id="g3947"
       transform="translate(328.8916,375.6407)"><path
         d="m 0,0 c 0,-2.596 -5.686,-4.699 -12.698,-4.699 -7.013,0 -12.698,2.103 -12.698,4.699 0,2.595 5.685,4.698 12.698,4.698 C -5.686,4.698 0,2.595 0,0"
         style="fill:#d3d2d2;fill-opacity:1;fill-rule:nonzero;stroke:none"
         id="path3949"
         inkscape:connector-curvature="0" /></g><g
       id="g3951"
       transform="translate(328.8916,375.6407)"><path
         d="m 0,0 c 0,-2.596 -5.686,-4.699 -12.698,-4.699 -7.013,0 -12.698,2.103 -12.698,4.699 0,2.595 5.685,4.698 12.698,4.698 C -5.686,4.698 0,2.595 0,0 Z"
         style="fill:none;stroke:#231f20;stroke-width:0.75;stroke-linecap:butt;stroke-linejoin:miter;stroke-miterlimit:10;stroke-dasharray:none;stroke-opacity:1"
         id="path3953"
         inkscape:connector-curvature="0" /></g><g
       id="g3955"
       transform="translate(303.4531,375.6407)"><path
         d="M 0,0 0.042,24.088 H 11.77 25.438 C 25.425,16.059 25.41,8.029 25.396,0 Z"
         style="fill:#d3d2d2;fill-opacity:1;fill-rule:nonzero;stroke:none"
         id="path3957"
         inkscape:connector-curvature="0" /></g><g
       id="g3959"
       transform="translate(303.4531,375.6407)"><path
         d="M 0,0 0.042,24.088 H 11.77 25.438 C 25.425,16.059 25.41,8.029 25.396,0 Z"
         style="fill:none;stroke:#231f20;stroke-width:0.75;stroke-linecap:butt;stroke-linejoin:miter;stroke-miterlimit:10;stroke-dasharray:none;stroke-opacity:1"
         id="path3961"
         inkscape:connector-curvature="0" /></g><g
       id="g3963"
       transform="translate(328.8916,399.7286)"><path
         d="m 0,0 c 0,-2.595 -5.686,-4.698 -12.698,-4.698 -7.013,0 -12.698,2.103 -12.698,4.698 0,2.596 5.685,4.699 12.698,4.699 C -5.686,4.699 0,2.596 0,0"
         style="fill:#7b7979;fill-opacity:1;fill-rule:nonzero;stroke:none"
         id="path3965"
         inkscape:connector-curvature="0" /></g><g
       id="g3967"
       transform="translate(328.8916,399.7286)"><path
         d="m 0,0 c 0,-2.595 -5.686,-4.698 -12.698,-4.698 -7.013,0 -12.698,2.103 -12.698,4.698 0,2.596 5.685,4.699 12.698,4.699 C -5.686,4.699 0,2.596 0,0 Z"
         style="fill:none;stroke:#231f20;stroke-width:0.75;stroke-linecap:butt;stroke-linejoin:miter;stroke-miterlimit:10;stroke-dasharray:none;stroke-opacity:1"
         id="path3969"
         inkscape:connector-curvature="0" /></g><g
       id="g3971"
       transform="translate(328.4561,375.6407)"><path
         d="M 0,0 H -24.536"
         style="fill:#e9e9e9;fill-opacity:1;fill-rule:nonzero;stroke:#d3d2d2;stroke-width:1;stroke-linecap:butt;stroke-linejoin:miter;stroke-miterlimit:10;stroke-dasharray:none;stroke-opacity:1"
         id="path3973"
         inkscape:connector-curvature="0" /></g><g
       id="g3975"
       transform="translate(355.7832,375.6407)"><path
         d="m 0,0 c 0,-2.596 -5.686,-4.699 -12.698,-4.699 -7.014,0 -12.698,2.103 -12.698,4.699 0,2.595 5.684,4.698 12.698,4.698 C -5.686,4.698 0,2.595 0,0"
         style="fill:#d3d2d2;fill-opacity:1;fill-rule:nonzero;stroke:none"
         id="path3977"
         inkscape:connector-curvature="0" /></g><g
       id="g3979"
       transform="translate(355.7832,375.6407)"><path
         d="m 0,0 c 0,-2.596 -5.686,-4.699 -12.698,-4.699 -7.014,0 -12.698,2.103 -12.698,4.699 0,2.595 5.684,4.698 12.698,4.698 C -5.686,4.698 0,2.595 0,0 Z"
         style="fill:none;stroke:#231f20;stroke-width:0.5;stroke-linecap:butt;stroke-linejoin:miter;stroke-miterlimit:10;stroke-dasharray:none;stroke-opacity:1"
         id="path3981"
         inkscape:connector-curvature="0" /></g><g
       id="g3983"
       transform="translate(330.3437,375.6407)"><path
         d="M 0,0 0.043,24.088 H 11.77 25.439 C 25.425,16.059 25.411,8.029 25.396,0 Z"
         style="fill:#d3d2d2;fill-opacity:1;fill-rule:nonzero;stroke:none"
         id="path3985"
         inkscape:connector-curvature="0" /></g><g
       id="g3987"
       transform="translate(330.3437,375.6407)"><path
         d="M 0,0 0.043,24.088 H 11.77 25.439 C 25.425,16.059 25.411,8.029 25.396,0 Z"
         style="fill:none;stroke:#231f20;stroke-width:0.5;stroke-linecap:butt;stroke-linejoin:miter;stroke-miterlimit:10;stroke-dasharray:none;stroke-opacity:1"
         id="path3989"
         inkscape:connector-curvature="0" /></g><g
       id="g3991"
       transform="translate(355.7832,399.7286)"><path
         d="m 0,0 c 0,-2.595 -5.686,-4.698 -12.698,-4.698 -7.014,0 -12.698,2.103 -12.698,4.698 0,2.596 5.684,4.699 12.698,4.699 C -5.686,4.699 0,2.596 0,0"
         style="fill:#7b7979;fill-opacity:1;fill-rule:nonzero;stroke:none"
         id="path3993"
         inkscape:connector-curvature="0" /></g><g
       id="g3995"
       transform="translate(355.7832,399.7286)"><path
         d="m 0,0 c 0,-2.595 -5.686,-4.698 -12.698,-4.698 -7.014,0 -12.698,2.103 -12.698,4.698 0,2.596 5.684,4.699 12.698,4.699 C -5.686,4.699 0,2.596 0,0 Z"
         style="fill:none;stroke:#231f20;stroke-width:0.5;stroke-linecap:butt;stroke-linejoin:miter;stroke-miterlimit:10;stroke-dasharray:none;stroke-opacity:1"
         id="path3997"
         inkscape:connector-curvature="0" /></g><g
       id="g3999"
       transform="translate(355.4971,375.6407)"><path
         d="M 0,0 H -24.878"
         style="fill:#d3d2d2;fill-opacity:1;fill-rule:nonzero;stroke:#d3d2d2;stroke-width:0.75;stroke-linecap:butt;stroke-linejoin:miter;stroke-miterlimit:10;stroke-dasharray:none;stroke-opacity:1"
         id="path4001"
         inkscape:connector-curvature="0" /></g></g></g><g
   id="g4003"
   transform="translate(291.4204,424.795)"><path
     d="M 0,0 55.374,-0.009"
     style="fill:none;stroke:#ec008c;stroke-width:3;stroke-linecap:butt;stroke-linejoin:miter;stroke-miterlimit:10;stroke-dasharray:none;stroke-opacity:1"
     id="path4005"
     inkscape:connector-curvature="0" /></g><g
   id="g4007"
   transform="translate(291.8389,413.8781)"><path
     d="M 0,0 -0.029,12.41"
     style="fill:none;stroke:#ec008c;stroke-width:3;stroke-linecap:butt;stroke-linejoin:miter;stroke-miterlimit:10;stroke-dasharray:none;stroke-opacity:1"
     id="path4009"
     inkscape:connector-curvature="0" /></g><g
   id="g4011"
   transform="translate(345.3428,413.9025)"><path
     d="M 0,0 -0.03,12.41"
     style="fill:none;stroke:#ec008c;stroke-width:3;stroke-linecap:butt;stroke-linejoin:miter;stroke-miterlimit:10;stroke-dasharray:none;stroke-opacity:1"
     id="path4013"
     inkscape:connector-curvature="0" /></g><g
   id="g4015"
   transform="translate(318.7656,413.6505)"><path
     d="M 0,0 -0.029,12.41"
     style="fill:none;stroke:#ec008c;stroke-width:3;stroke-linecap:butt;stroke-linejoin:miter;stroke-miterlimit:10;stroke-dasharray:none;stroke-opacity:1"
     id="path4017"
     inkscape:connector-curvature="0" /></g><g
   id="g4019"
   transform="translate(288.4141,409.5577)"><path
     d="M 0,0 55.373,-0.009"
     style="fill:none;stroke:#ec008c;stroke-width:3;stroke-linecap:butt;stroke-linejoin:miter;stroke-miterlimit:10;stroke-dasharray:none;stroke-opacity:1"
     id="path4021"
     inkscape:connector-curvature="0" /></g><g
   id="g4023"
   transform="translate(288.8325,398.6407)"><path
     d="M 0,0 -0.029,12.41"
     style="fill:none;stroke:#ec008c;stroke-width:3;stroke-linecap:butt;stroke-linejoin:miter;stroke-miterlimit:10;stroke-dasharray:none;stroke-opacity:1"
     id="path4025"
     inkscape:connector-curvature="0" /></g><g
   id="g4027"
   transform="translate(343.3359,398.6652)"><path
     d="M 0,0 -0.029,12.41"
     style="fill:none;stroke:#ec008c;stroke-width:3;stroke-linecap:butt;stroke-linejoin:miter;stroke-miterlimit:10;stroke-dasharray:none;stroke-opacity:1"
     id="path4029"
     inkscape:connector-curvature="0" /></g><g
   id="g4031"
   transform="translate(315.7588,398.4132)"><path
     d="M 0,0 -0.029,12.41"
     style="fill:none;stroke:#ec008c;stroke-width:3;stroke-linecap:butt;stroke-linejoin:miter;stroke-miterlimit:10;stroke-dasharray:none;stroke-opacity:1"
     id="path4033"
     inkscape:connector-curvature="0" /></g><text
   transform="matrix(0.86567779,0.50060161,0.50060161,-0.86567779,317.6752,324.3093)"
   style="font-variant:normal;font-weight:bold;font-stretch:normal;font-size:3.99999px;font-family:'Arial Rounded MT Bold';-inkscape-font-specification:'Arial Rounded MT Bold, Bold';writing-mode:lr-tb;fill:#ec008c;fill-opacity:1;fill-rule:nonzero;stroke:none;font-style:normal;font-variant-ligatures:normal;font-variant-caps:normal;font-variant-numeric:normal;font-variant-east-asian:normal"
   id="text4037"><tspan
     sodipodi:role="line"
     id="tspan13559">https://sesync-ci.github.io/rslurm/</tspan></text>
<g
   id="g4039"><g
     id="g4041"
     clip-path="url(#clipPath4045)"><g
       id="g4047"
       transform="translate(281.2187,380.13)"><path
         d="M 0,0 C 0.003,-0.929 0.006,-1.858 0.01,-2.786 0.012,-3.461 -0.156,-3.941 -0.496,-4.222 -0.834,-4.5 -1.265,-4.594 -1.785,-4.48 c -0.51,0.112 -0.928,0.392 -1.253,0.838 -0.326,0.447 -0.486,1.026 -0.485,1.723 0.005,3.231 0.01,6.461 0.015,9.69 0.004,1.572 0.549,2.066 1.676,1.608 0.576,-0.229 0.999,-0.55 1.259,-0.988 0.26,-0.437 0.404,-0.996 0.433,-1.689 0.421,0.56 0.858,0.951 1.308,1.182 C 1.619,8.115 2.223,8.142 2.987,8.002 3.75,7.862 4.499,7.594 5.226,7.192 5.953,6.795 6.318,6.344 6.317,5.794 6.317,5.407 6.164,5.094 5.854,4.86 5.545,4.626 5.212,4.522 4.854,4.554 4.721,4.566 4.396,4.667 3.884,4.875 3.372,5.085 2.92,5.229 2.532,5.297 2.001,5.391 1.57,5.357 1.238,5.178 0.905,5 0.649,4.685 0.468,4.227 0.287,3.77 0.163,3.201 0.096,2.522 0.028,1.843 -0.003,1.003 0,0"
         style="fill:#00adef;fill-opacity:1;fill-rule:nonzero;stroke:none"
         id="path4049"
         inkscape:connector-curvature="0" /></g><g
       id="g4051"
       transform="translate(281.2187,380.13)"><path
         d="M 0,0 C 0.003,-0.929 0.006,-1.858 0.01,-2.786 0.012,-3.461 -0.156,-3.941 -0.496,-4.222 -0.834,-4.5 -1.265,-4.594 -1.785,-4.48 c -0.51,0.112 -0.928,0.392 -1.253,0.838 -0.326,0.447 -0.486,1.026 -0.485,1.723 0.005,3.231 0.01,6.461 0.015,9.69 0.004,1.572 0.549,2.066 1.676,1.608 0.576,-0.229 0.999,-0.55 1.259,-0.988 0.26,-0.437 0.404,-0.996 0.433,-1.689 0.421,0.56 0.858,0.951 1.308,1.182 C 1.619,8.115 2.223,8.142 2.987,8.002 3.75,7.862 4.499,7.594 5.226,7.192 5.953,6.795 6.318,6.344 6.317,5.794 6.317,5.407 6.164,5.094 5.854,4.86 5.545,4.626 5.212,4.522 4.854,4.554 4.721,4.566 4.396,4.667 3.884,4.875 3.372,5.085 2.92,5.229 2.532,5.297 2.001,5.391 1.57,5.357 1.238,5.178 0.905,5 0.649,4.685 0.468,4.227 0.287,3.77 0.163,3.201 0.096,2.522 0.028,1.843 -0.003,1.003 0,0 Z"
         style="fill:none;stroke:#231f20;stroke-width:1;stroke-linecap:butt;stroke-linejoin:miter;stroke-miterlimit:10;stroke-dasharray:none;stroke-opacity:1"
         id="path4053"
         inkscape:connector-curvature="0" /></g><g
       id="g4055"
       transform="translate(300.4199,381.0802)"><path
         d="m 0,0 c -0.002,-0.914 -0.234,-1.787 -0.707,-2.588 -0.474,-0.802 -1.176,-1.499 -2.114,-2.047 -0.938,-0.55 -2.087,-0.933 -3.445,-1.12 -1.296,-0.177 -2.41,-0.1 -3.339,0.181 -0.93,0.284 -1.618,0.696 -2.061,1.205 -0.444,0.511 -0.666,1.033 -0.666,1.557 0,0.348 0.142,0.645 0.428,0.893 0.285,0.249 0.647,0.377 1.083,0.393 0.383,0.013 0.677,-0.05 0.882,-0.2 0.205,-0.149 0.399,-0.362 0.585,-0.64 0.372,-0.532 0.816,-0.914 1.333,-1.137 0.517,-0.222 1.223,-0.28 2.113,-0.142 0.723,0.114 1.315,0.368 1.777,0.75 0.461,0.383 0.692,0.768 0.694,1.139 0.004,0.568 -0.231,0.923 -0.706,1.073 -0.475,0.155 -1.261,0.23 -2.365,0.289 -1.246,0.079 -2.268,0.266 -3.057,0.506 -0.789,0.242 -1.42,0.613 -1.894,1.091 -0.474,0.48 -0.711,1.081 -0.711,1.79 0,0.632 0.22,1.224 0.661,1.786 0.441,0.564 1.093,1.019 1.953,1.413 0.859,0.394 1.896,0.673 3.096,0.897 0.942,0.175 1.779,0.297 2.515,0.333 0.736,0.035 1.341,0.005 1.823,-0.118 0.481,-0.123 0.844,-0.31 1.093,-0.574 0.248,-0.263 0.371,-0.567 0.37,-0.913 C -0.66,5.439 -0.794,5.075 -1.062,4.735 -1.33,4.395 -1.712,4.139 -2.21,3.979 -2.571,3.862 -2.88,3.865 -3.134,3.98 -3.389,4.096 -3.68,4.298 -4.01,4.587 -4.278,4.83 -4.596,4.999 -4.964,5.101 -5.332,5.203 -5.834,5.186 -6.473,5.071 -7.13,4.955 -7.68,4.758 -8.119,4.464 -8.559,4.169 -8.779,3.849 -8.78,3.487 -8.782,3.157 -8.622,2.9 -8.302,2.725 -7.981,2.549 -7.55,2.425 -7.009,2.367 -6.468,2.31 -5.724,2.264 -4.786,2.268 -3.673,2.272 -2.775,2.239 -2.084,2.113 -1.394,1.987 -0.876,1.766 -0.525,1.423 -0.175,1.08 0,0.607 0,0"
         style="fill:#00adef;fill-opacity:1;fill-rule:nonzero;stroke:none"
         id="path4057"
         inkscape:connector-curvature="0" /></g><g
       id="g4059"
       transform="translate(300.4199,381.0802)"><path
         d="m 0,0 c -0.002,-0.914 -0.234,-1.787 -0.707,-2.588 -0.474,-0.802 -1.176,-1.499 -2.114,-2.047 -0.938,-0.55 -2.087,-0.933 -3.445,-1.12 -1.296,-0.177 -2.41,-0.1 -3.339,0.181 -0.93,0.284 -1.618,0.696 -2.061,1.205 -0.444,0.511 -0.666,1.033 -0.666,1.557 0,0.348 0.142,0.645 0.428,0.893 0.285,0.249 0.647,0.377 1.083,0.393 0.383,0.013 0.677,-0.05 0.882,-0.2 0.205,-0.149 0.399,-0.362 0.585,-0.64 0.372,-0.532 0.816,-0.914 1.333,-1.137 0.517,-0.222 1.223,-0.28 2.113,-0.142 0.723,0.114 1.315,0.368 1.777,0.75 0.461,0.383 0.692,0.768 0.694,1.139 0.004,0.568 -0.231,0.923 -0.706,1.073 -0.475,0.155 -1.261,0.23 -2.365,0.289 -1.246,0.079 -2.268,0.266 -3.057,0.506 -0.789,0.242 -1.42,0.613 -1.894,1.091 -0.474,0.48 -0.711,1.081 -0.711,1.79 0,0.632 0.22,1.224 0.661,1.786 0.441,0.564 1.093,1.019 1.953,1.413 0.859,0.394 1.896,0.673 3.096,0.897 0.942,0.175 1.779,0.297 2.515,0.333 0.736,0.035 1.341,0.005 1.823,-0.118 0.481,-0.123 0.844,-0.31 1.093,-0.574 0.248,-0.263 0.371,-0.567 0.37,-0.913 C -0.66,5.439 -0.794,5.075 -1.062,4.735 -1.33,4.395 -1.712,4.139 -2.21,3.979 -2.571,3.862 -2.88,3.865 -3.134,3.98 -3.389,4.096 -3.68,4.298 -4.01,4.587 -4.278,4.83 -4.596,4.999 -4.964,5.101 -5.332,5.203 -5.834,5.186 -6.473,5.071 -7.13,4.955 -7.68,4.758 -8.119,4.464 -8.559,4.169 -8.779,3.849 -8.78,3.487 -8.782,3.157 -8.622,2.9 -8.302,2.725 -7.981,2.549 -7.55,2.425 -7.009,2.367 -6.468,2.31 -5.724,2.264 -4.786,2.268 -3.673,2.272 -2.775,2.239 -2.084,2.113 -1.394,1.987 -0.876,1.766 -0.525,1.423 -0.175,1.08 0,0.607 0,0 Z"
         style="fill:none;stroke:#231f20;stroke-width:1;stroke-linecap:butt;stroke-linejoin:miter;stroke-miterlimit:10;stroke-dasharray:none;stroke-opacity:1"
         id="path4061"
         inkscape:connector-curvature="0" /></g><g
       id="g4063"
       transform="translate(306.4043,377.1984)"><path
         d="m 0,0 c -0.018,4.82 -0.035,9.64 -0.053,14.458 -0.003,0.669 0.152,1.127 0.463,1.384 0.313,0.257 0.736,0.317 1.273,0.192 C 2.22,15.91 2.655,15.651 2.987,15.25 3.319,14.848 3.486,14.313 3.489,13.636 3.503,8.815 3.518,3.992 3.532,-0.831 3.534,-1.507 3.368,-1.986 3.035,-2.261 2.702,-2.534 2.27,-2.615 1.744,-2.491 1.227,-2.368 0.808,-2.082 0.485,-1.641 0.164,-1.2 0.003,-0.649 0,0"
         style="fill:#00adef;fill-opacity:1;fill-rule:nonzero;stroke:none"
         id="path4065"
         inkscape:connector-curvature="0" /></g><g
       id="g4067"
       transform="translate(306.4043,377.1984)"><path
         d="m 0,0 c -0.018,4.82 -0.035,9.64 -0.053,14.458 -0.003,0.669 0.152,1.127 0.463,1.384 0.313,0.257 0.736,0.317 1.273,0.192 C 2.22,15.91 2.655,15.651 2.987,15.25 3.319,14.848 3.486,14.313 3.489,13.636 3.503,8.815 3.518,3.992 3.532,-0.831 3.534,-1.507 3.368,-1.986 3.035,-2.261 2.702,-2.534 2.27,-2.615 1.744,-2.491 1.227,-2.368 0.808,-2.082 0.485,-1.641 0.164,-1.2 0.003,-0.649 0,0 Z"
         style="fill:none;stroke:#231f20;stroke-width:1;stroke-linecap:butt;stroke-linejoin:miter;stroke-miterlimit:10;stroke-dasharray:none;stroke-opacity:1"
         id="path4069"
         inkscape:connector-curvature="0" /></g><g
       id="g4071"
       transform="translate(322.9912,376.2599)"><path
         d="m 0,0 v 0.429 c -0.426,-0.584 -0.875,-1.081 -1.347,-1.491 -0.471,-0.409 -0.988,-0.727 -1.549,-0.949 -0.562,-0.221 -1.205,-0.355 -1.926,-0.388 -0.872,-0.041 -1.655,0.119 -2.348,0.462 -0.693,0.343 -1.229,0.828 -1.609,1.434 -0.451,0.733 -0.678,1.769 -0.682,3.095 -0.005,2.201 -0.01,4.402 -0.016,6.603 -0.002,0.668 0.161,1.153 0.487,1.461 0.326,0.31 0.758,0.45 1.298,0.435 0.547,-0.015 0.99,-0.182 1.327,-0.513 0.336,-0.331 0.505,-0.822 0.506,-1.481 0.003,-1.778 0.006,-3.555 0.009,-5.332 10e-4,-0.772 0.072,-1.42 0.215,-1.941 0.142,-0.521 0.397,-0.926 0.763,-1.205 0.365,-0.28 0.861,-0.401 1.485,-0.348 0.608,0.051 1.177,0.283 1.711,0.687 0.533,0.405 0.921,0.904 1.164,1.483 0.201,0.506 0.301,1.56 0.299,3.157 -0.001,1.351 -0.002,2.704 -0.003,4.056 0,0.66 0.165,1.185 0.496,1.583 0.329,0.398 0.76,0.653 1.286,0.775 0.528,0.123 0.95,0.069 1.266,-0.174 0.316,-0.242 0.476,-0.693 0.476,-1.361 0,-3.22 0,-6.44 0.001,-9.66 0,-0.634 -0.152,-1.158 -0.455,-1.561 C 2.55,-1.148 2.158,-1.413 1.676,-1.528 1.192,-1.644 0.793,-1.563 0.477,-1.296 0.159,-1.028 0,-0.594 0,0"
         style="fill:#00adef;fill-opacity:1;fill-rule:nonzero;stroke:none"
         id="path4073"
         inkscape:connector-curvature="0" /></g><g
       id="g4075"
       transform="translate(322.9912,376.2599)"><path
         d="m 0,0 v 0.429 c -0.426,-0.584 -0.875,-1.081 -1.347,-1.491 -0.471,-0.409 -0.988,-0.727 -1.549,-0.949 -0.562,-0.221 -1.205,-0.355 -1.926,-0.388 -0.872,-0.041 -1.655,0.119 -2.348,0.462 -0.693,0.343 -1.229,0.828 -1.609,1.434 -0.451,0.733 -0.678,1.769 -0.682,3.095 -0.005,2.201 -0.01,4.402 -0.016,6.603 -0.002,0.668 0.161,1.153 0.487,1.461 0.326,0.31 0.758,0.45 1.298,0.435 0.547,-0.015 0.99,-0.182 1.327,-0.513 0.336,-0.331 0.505,-0.822 0.506,-1.481 0.003,-1.778 0.006,-3.555 0.009,-5.332 10e-4,-0.772 0.072,-1.42 0.215,-1.941 0.142,-0.521 0.397,-0.926 0.763,-1.205 0.365,-0.28 0.861,-0.401 1.485,-0.348 0.608,0.051 1.177,0.283 1.711,0.687 0.533,0.405 0.921,0.904 1.164,1.483 0.201,0.506 0.301,1.56 0.299,3.157 -0.001,1.351 -0.002,2.704 -0.003,4.056 0,0.66 0.165,1.185 0.496,1.583 0.329,0.398 0.76,0.653 1.286,0.775 0.528,0.123 0.95,0.069 1.266,-0.174 0.316,-0.242 0.476,-0.693 0.476,-1.361 0,-3.22 0,-6.44 0.001,-9.66 0,-0.634 -0.152,-1.158 -0.455,-1.561 C 2.55,-1.148 2.158,-1.413 1.676,-1.528 1.192,-1.644 0.793,-1.563 0.477,-1.296 0.159,-1.028 0,-0.594 0,0 Z"
         style="fill:none;stroke:#231f20;stroke-width:1;stroke-linecap:butt;stroke-linejoin:miter;stroke-miterlimit:10;stroke-dasharray:none;stroke-opacity:1"
         id="path4077"
         inkscape:connector-curvature="0" /></g><g
       id="g4079"
       transform="translate(334.375,380.214)"><path
         d="m 0,0 c 0.002,-0.89 0.004,-1.778 0.006,-2.668 0.001,-0.646 -0.116,-1.11 -0.354,-1.391 -0.238,-0.278 -0.54,-0.384 -0.905,-0.303 -0.358,0.079 -0.652,0.318 -0.881,0.717 -0.228,0.4 -0.342,0.936 -0.34,1.6 0.008,3.074 0.016,6.149 0.024,9.222 0.005,1.494 0.39,2.036 1.179,1.692 0.403,-0.172 0.696,-0.456 0.876,-0.86 0.18,-0.405 0.282,-0.934 0.3,-1.596 C 0.2,6.968 0.503,7.358 0.815,7.59 1.127,7.821 1.546,7.855 2.074,7.714 2.604,7.573 3.121,7.293 3.625,6.874 4.13,6.459 4.385,6.002 4.387,5.477 4.388,5.107 4.281,4.818 4.067,4.611 3.854,4.403 3.622,4.319 3.375,4.364 3.281,4.381 3.056,4.488 2.7,4.701 2.345,4.913 2.032,5.056 1.762,5.122 1.394,5.213 1.095,5.175 0.864,4.996 0.634,4.818 0.454,4.51 0.329,4.064 0.202,3.621 0.116,3.071 0.068,2.419 0.021,1.767 -0.002,0.96 0,0"
         style="fill:#00adef;fill-opacity:1;fill-rule:nonzero;stroke:none"
         id="path4081"
         inkscape:connector-curvature="0" /></g><g
       id="g4083"
       transform="translate(334.375,380.214)"><path
         d="m 0,0 c 0.002,-0.89 0.004,-1.778 0.006,-2.668 0.001,-0.646 -0.116,-1.11 -0.354,-1.391 -0.238,-0.278 -0.54,-0.384 -0.905,-0.303 -0.358,0.079 -0.652,0.318 -0.881,0.717 -0.228,0.4 -0.342,0.936 -0.34,1.6 0.008,3.074 0.016,6.149 0.024,9.222 0.005,1.494 0.39,2.036 1.179,1.692 0.403,-0.172 0.696,-0.456 0.876,-0.86 0.18,-0.405 0.282,-0.934 0.3,-1.596 C 0.2,6.968 0.503,7.358 0.815,7.59 1.127,7.821 1.546,7.855 2.074,7.714 2.604,7.573 3.121,7.293 3.625,6.874 4.13,6.459 4.385,6.002 4.387,5.477 4.388,5.107 4.281,4.818 4.067,4.611 3.854,4.403 3.622,4.319 3.375,4.364 3.281,4.381 3.056,4.488 2.7,4.701 2.345,4.913 2.032,5.056 1.762,5.122 1.394,5.213 1.095,5.175 0.864,4.996 0.634,4.818 0.454,4.51 0.329,4.064 0.202,3.621 0.116,3.071 0.068,2.419 0.021,1.767 -0.002,0.96 0,0 Z"
         style="fill:none;stroke:#231f20;stroke-width:1;stroke-linecap:butt;stroke-linejoin:miter;stroke-miterlimit:10;stroke-dasharray:none;stroke-opacity:1"
         id="path4085"
         inkscape:connector-curvature="0" /></g><g
       id="g4087"
       transform="translate(348.6875,381.4454)"><path
         d="m 0,0 c -0.007,-1.312 -0.016,-2.623 -0.023,-3.936 -0.003,-0.622 -0.127,-1.108 -0.372,-1.453 -0.244,-0.345 -0.563,-0.543 -0.959,-0.591 -0.386,-0.047 -0.698,0.075 -0.935,0.357 -0.238,0.284 -0.356,0.735 -0.353,1.351 0.007,1.557 0.014,3.115 0.021,4.671 C -2.618,1.137 -2.639,1.707 -2.68,2.11 -2.723,2.514 -2.841,2.835 -3.034,3.078 -3.228,3.32 -3.535,3.423 -3.957,3.396 -4.801,3.342 -5.357,3.009 -5.625,2.345 -5.894,1.682 -6.027,0.733 -6.027,-0.502 c 0,-1.325 0,-2.651 -10e-4,-3.977 0,-0.611 -0.12,-1.077 -0.359,-1.395 -0.24,-0.318 -0.556,-0.48 -0.947,-0.483 -0.387,-0.003 -0.702,0.157 -0.948,0.477 -0.246,0.321 -0.371,0.794 -0.373,1.415 -0.008,2.851 -0.015,5.701 -0.023,8.551 -0.002,0.562 0.109,0.976 0.331,1.245 0.223,0.269 0.517,0.386 0.883,0.359 0.353,-0.024 0.648,-0.172 0.885,-0.451 0.236,-0.278 0.354,-0.651 0.354,-1.126 v -0.28 c 0.448,0.603 0.929,1.054 1.441,1.357 0.512,0.302 1.081,0.479 1.704,0.539 0.648,0.062 1.203,-0.008 1.665,-0.231 C -0.954,5.276 -0.576,4.902 -0.281,4.36 0.151,5.048 0.612,5.6 1.102,6.017 1.59,6.434 2.127,6.732 2.71,6.92 3.391,7.137 3.968,7.188 4.449,7.048 4.932,6.907 5.286,6.585 5.522,6.065 5.728,5.596 5.831,4.758 5.833,3.555 5.834,1.539 5.836,-0.477 5.837,-2.492 5.838,-3.144 5.721,-3.673 5.486,-4.072 5.25,-4.472 4.937,-4.729 4.548,-4.837 4.171,-4.942 3.861,-4.859 3.621,-4.599 3.381,-4.336 3.263,-3.891 3.265,-3.261 3.272,-1.563 3.279,0.134 3.286,1.831 3.289,2.481 3.27,2.996 3.225,3.373 3.182,3.751 3.06,4.041 2.86,4.244 2.661,4.449 2.357,4.489 1.947,4.378 1.616,4.288 1.301,4.091 1,3.789 0.7,3.485 0.465,3.125 0.295,2.7 0.106,2.163 0.008,1.264 0,0"
         style="fill:#00adef;fill-opacity:1;fill-rule:nonzero;stroke:none"
         id="path4089"
         inkscape:connector-curvature="0" /></g><g
       id="g4091"
       transform="translate(348.6875,381.4454)"><path
         d="m 0,0 c -0.007,-1.312 -0.016,-2.623 -0.023,-3.936 -0.003,-0.622 -0.127,-1.108 -0.372,-1.453 -0.244,-0.345 -0.563,-0.543 -0.959,-0.591 -0.386,-0.047 -0.698,0.075 -0.935,0.357 -0.238,0.284 -0.356,0.735 -0.353,1.351 0.007,1.557 0.014,3.115 0.021,4.671 C -2.618,1.137 -2.639,1.707 -2.68,2.11 -2.723,2.514 -2.841,2.835 -3.034,3.078 -3.228,3.32 -3.535,3.423 -3.957,3.396 -4.801,3.342 -5.357,3.009 -5.625,2.345 -5.894,1.682 -6.027,0.733 -6.027,-0.502 c 0,-1.325 0,-2.651 -10e-4,-3.977 0,-0.611 -0.12,-1.077 -0.359,-1.395 -0.24,-0.318 -0.556,-0.48 -0.947,-0.483 -0.387,-0.003 -0.702,0.157 -0.948,0.477 -0.246,0.321 -0.371,0.794 -0.373,1.415 -0.008,2.851 -0.015,5.701 -0.023,8.551 -0.002,0.562 0.109,0.976 0.331,1.245 0.223,0.269 0.517,0.386 0.883,0.359 0.353,-0.024 0.648,-0.172 0.885,-0.451 0.236,-0.278 0.354,-0.651 0.354,-1.126 v -0.28 c 0.448,0.603 0.929,1.054 1.441,1.357 0.512,0.302 1.081,0.479 1.704,0.539 0.648,0.062 1.203,-0.008 1.665,-0.231 C -0.954,5.276 -0.576,4.902 -0.281,4.36 0.151,5.048 0.612,5.6 1.102,6.017 1.59,6.434 2.127,6.732 2.71,6.92 3.391,7.137 3.968,7.188 4.449,7.048 4.932,6.907 5.286,6.585 5.522,6.065 5.728,5.596 5.831,4.758 5.833,3.555 5.834,1.539 5.836,-0.477 5.837,-2.492 5.838,-3.144 5.721,-3.673 5.486,-4.072 5.25,-4.472 4.937,-4.729 4.548,-4.837 4.171,-4.942 3.861,-4.859 3.621,-4.599 3.381,-4.336 3.263,-3.891 3.265,-3.261 3.272,-1.563 3.279,0.134 3.286,1.831 3.289,2.481 3.27,2.996 3.225,3.373 3.182,3.751 3.06,4.041 2.86,4.244 2.661,4.449 2.357,4.489 1.947,4.378 1.616,4.288 1.301,4.091 1,3.789 0.7,3.485 0.465,3.125 0.295,2.7 0.106,2.163 0.008,1.264 0,0 Z"
         style="fill:none;stroke:#231f20;stroke-width:1;stroke-linecap:butt;stroke-linejoin:miter;stroke-miterlimit:10;stroke-dasharray:none;stroke-opacity:1"
         id="path4093"
         inkscape:connector-curvature="0" /></g></g></g></g></svg>
